<?xml version="1.0" standalone="no"?>
<!DOCTYPE svg PUBLIC "-//W3C//DTD SVG 20010904//EN"
 "http://www.w3.org/TR/2001/REC-SVG-20010904/DTD/svg10.dtd">
<svg version="1.0" xmlns="http://www.w3.org/2000/svg"
 width="736.000000pt" height="736.000000pt" viewBox="0 0 736.000000 736.000000"
 preserveAspectRatio="xMidYMid meet">

<g transform="translate(0.000000,736.000000) scale(0.100000,-0.100000)"
fill="#000000" stroke="none">
<path d="M5428 6544 c-37 -20 -55 -58 -73 -153 -71 -373 -353 -669 -716 -752
-143 -32 -178 -47 -200 -83 -30 -47 -21 -111 23 -151 27 -25 52 -35 140 -53
201 -42 348 -121 488 -262 133 -132 217 -283 254 -455 10 -44 22 -96 27 -116
24 -94 139 -130 204 -65 24 24 28 37 65 190 63 268 249 502 496 625 83 41 236
91 280 91 13 0 42 7 64 16 96 39 109 173 20 219 -15 8 -68 23 -116 34 -397 87
-673 362 -754 752 -21 99 -39 139 -74 163 -31 20 -92 20 -128 0z"/>
<path d="M2575 6283 c-710 -34 -1060 -156 -1358 -473 -267 -284 -374 -618
-407 -1280 -13 -253 -13 -1729 0 -1975 13 -242 26 -367 56 -533 61 -336 174
-563 384 -772 268 -268 553 -378 1125 -431 174 -16 1851 -24 2130 -10 731 37
1066 152 1364 467 244 257 352 548 402 1079 16 172 24 1886 10 2175 -11 214
-27 399 -36 408 -9 9 -74 -40 -126 -95 -93 -98 -136 -187 -169 -352 -11 -52
-31 -119 -46 -150 -36 -74 -143 -180 -216 -214 -175 -83 -380 -47 -517 90 -73
73 -115 159 -142 288 -12 55 -30 122 -40 148 -54 136 -200 282 -336 336 -26
10 -93 28 -148 40 -185 39 -304 121 -370 254 -93 189 -62 381 84 528 80 79
146 113 272 139 165 33 254 76 352 169 54 52 104 117 95 126 -8 8 -190 25
-373 35 -164 9 -1824 11 -1990 3z m1181 -1343 c37 -14 86 -63 105 -105 18 -38
19 -99 19 -1288 0 -1104 -2 -1252 -15 -1285 -69 -163 -301 -163 -370 0 -13 33
-15 181 -15 1285 0 1193 1 1250 19 1288 46 100 153 143 257 105z m810 -539
c55 -25 101 -83 114 -145 8 -35 10 -267 8 -741 -3 -683 -3 -690 -24 -730 -12
-22 -30 -47 -40 -56 -114 -100 -293 -49 -333 96 -7 27 -11 260 -11 721 0 753
0 751 62 811 65 63 147 79 224 44z m-1618 -267 c44 -18 87 -57 110 -99 15 -26
17 -82 20 -455 4 -472 1 -508 -51 -567 -112 -127 -311 -75 -347 91 -8 34 -10
191 -8 476 3 465 2 452 65 512 58 56 140 72 211 42z m-800 -269 c49 -21 81
-52 103 -100 16 -34 19 -66 19 -220 0 -168 -2 -184 -22 -225 -14 -26 -41 -57
-66 -75 -38 -26 -52 -30 -112 -30 -60 0 -74 4 -111 30 -23 17 -53 50 -66 74
-22 41 -23 55 -23 223 0 190 7 227 53 277 52 56 151 76 225 46z"/>
</g>
</svg>
